# xmcd
#
# Track frame offsets:
# 150
# 17190
# 33123
# 47842
# 63869
# 80692
# 95521
# 113587
# 127004
# 142130
# 161420
# 178717
# 196873
# 214160
# 230970
# 247257
# 268211
# 287314
#
# Disc length: 4035 seconds
#
# Revision: 0
# Processed by: cddbd v1.5.1PL2 Copyright (c) Steve Scherf et al.
# Submitted via: Axialis_AX_CDPlayer 2.6
#
DISCID=0b0fc112
DTITLE=Various Artist - More Country Heat 2006
DYEAR=1900
DGENRE=
TTITLE0=Carrie Underwood - Jesus, Take The Wheel
TTITLE1=Kenny Chesney - Keg In The Closet
TTITLE2=Brooks and Dunn - Play Something Country
TTITLE3=Gretchen Wilson - All Jacked Up
TTITLE4=Paul Brandt - Alberta Bound
TTITLE5=Martina McBride - (I Never Promised You A) Rose Garden
TTITLE6=Sara Evans - A Real Fine Place To Start
TTITLE7=Alan Jackson - The Talkin' Song Repair Blues
TTITLE8=Aaron Lines - It Takes A Man
TTITLE9=Montgomery Gentry - Something To Be Proud Of
TTITLE10=Carolyn Dawn Johnson - Simple Life
TTITLE11=Lonestar - You're Like Comin' Home
TTITLE12=Craig Morgan - Redneck Yacht Club
TTITLE13=Keith Anderson - XXL
TTITLE14=Jason Aldean - Hicktown
TTITLE15=Jason Blaine - Heartache Like Mine
TTITLE16=Van Zant - Help Somebody
TTITLE17=Phil Vassar - Ill Taje That As A Yes (The Hot Tub Song)
EXTD=
EXTT0=
EXTT1=
EXTT2=
EXTT3=
EXTT4=
EXTT5=
EXTT6=
EXTT7=
EXTT8=
EXTT9=
EXTT10=
EXTT11=
EXTT12=
EXTT13=
EXTT14=
EXTT15=
EXTT16=
EXTT17=
PLAYORDER=
